<svg width="512" height="512" viewBox="0 0 512 512" role="img" aria-label="PayQR" focusable="false" xmlns="http://www.w3.org/2000/svg">
  <defs>
    <linearGradient id="payqr-grad" gradientUnits="userSpaceOnUse" x1="169.4742" y1="245.3265" x2="349.1737" y2="436.179" gradientTransform="matrix(1 0 0 1 0 -81.2756)">
      <stop offset="0" stop-color="#8A2EFF"/>
      <stop offset="1" stop-color="#30BCC9"/>
    </linearGradient>
    <mask id="payqr-cutout" maskUnits="userSpaceOnUse" x="0" y="0" width="512" height="512">
      <path fill="#fff" fill-rule="evenodd" clip-rule="evenodd" d="M59.4,124.8c0-36.2,29.4-65.6,65.6-65.6h262.3c36.2,0,65.6,29.4,65.6,65.6v9.9c-11.2-1.4-22.6-2.1-34.1-2.1c-151.4,0-274.2,120.1-274.2,268.3c0,17.7,1.8,35,5.1,51.8h-24.8c-36.2,0-65.6-29.4-65.6-65.6L59.4,124.8L59.4,124.8z M452.9,387.2V167.9c-11.1-1.6-22.5-2.4-34.1-2.4c-131.8,0-238.7,106.9-238.7,238.7c0,16.6,1.7,32.9,4.9,48.5h202.3C423.5,452.8,452.9,423.4,452.9,387.2L452.9,387.2z"/>
      <g fill="#000">
        <path d="M406.9,427.8h-34.8c-11.4,0-20.6-9.3-20.6-20.6v-34.8c0-11.4,9.3-20.6,20.6-20.6h34.8c11.4,0,20.6,9.3,20.6,20.6v34.8C427.5,418.6,418.2,427.8,406.9,427.8z M372,363c-5.2,0-9.4,4.2-9.4,9.4v34.8c0,5.2,4.2,9.4,9.4,9.4h34.8c5.2,0,9.4-4.2,9.4-9.4v-34.8c0-5.2-4.2-9.4-9.4-9.4H372z"/>
        <path d="M399.1,374.1h-19.3c-3.4,0-6.1,2.7-6.1,6.1v19.3c0,3.4,2.7,6.1,6.1,6.1h19.3c3.4,0,6.1-2.7,6.1-6.1v-19.3C405.2,376.8,402.5,374.1,399.1,374.1L399.1,374.1z"/>
        <path d="M288.6,402.1c-0.7-3.7-2.2-5-5.2-7.2c-2.3-1.7-5.5-3.4-9.5-3.7c-9.2-0.7-17.4,9-19.7,12.3c-6,8.7-3.4,24.7-5.7,26.4c-1.9,1.3-4.9,0.9-7.9-4.8c-3.8-7.4-2.3-18.2,0.6-23.2c2.8-5,16.9-14.7,15.9-18.3c-0.6-2.1-3.4-2.2-8.1-0.4c-4.7,1.8-8.8,5.2-11.7,9.5l-4.8,7.3c-0.4,0.7-1.2,1-2,0.8c-1.1-0.3-1.9-1-2.5-2c-1.2-2-1.6-4.3-1.3-6.6l0.1-0.6c0.3-2.5,1.4-4.9,3.1-6.7c2.7-2.9,6.5-6.6,8.5-7.4c2.8-1.3,5.1-2.9,10.6-6c5.4-3.1,3.5-6.1-0.3-6.3c-3.1-0.2-6.1,0.7-8.7,2.3c-5.2,3.2-15.1,8.8-21.3,9.7c-1,0.1-2,0.2-2.8,0.3c-4.1,0.1-8.1-1.9-10.2-5.5c-1.3-2.1-3.5-4.2-6.7-1.2c-0.9,0.9-0.7,2.5-0.1,4.2c1.2,3.4,3.6,6.3,6.7,8.2c2.7,1.6,6.2,3.8,8.4,5c2,1.1,1.8,2.4,1,3.4s-1.9,1.7-3.2,1.9c-1.4,0.3-4.6,1.1-11.3,3.1c-5.4,1.6-6.2,6.9-5.5,12c0.9,6.7,7.4,11.6,14,10.6c0.8-0.1,1.6-0.3,2.5-0.4c1.3-0.2,2.3-1.4,2.6-2.5c0.3-1.2-0.5-2.7-2-3.1l-5.5-0.8c-2.2-0.1-5.4-1.5-4.7-4.3c1.4-6.1,11.8-4.9,11.8-4.9s17.5,4.1,11.9,16.8c-3.2,7.3-11.9,11.3-18.7,13.4c-1.1,0.3-0.9,2,0.3,2l52.3-0.4c1.3,0,2.3-1.1,2.2-2.4c-0.4-4.1-1.1-12.5-1-14.8c0-1.7,0.9-5.5,1.6-8.6c1-4.1,4.4-7.4,8.6-8c1.7-0.3,3.5-0.2,5.5,0.3c2,0.6,3.4,2.1,4.1,4c-0.1,4.4-1.8,4.9-4.3,5.7l-0.5,0.1c-1.5,0.4-2.6,1.6-2.8,2.9c-0.3,1.3,0.6,2.6,1.8,3c0.5,0.2,1,0.3,1.6,0.5c0.5,0.2,1.2,0.2,2.1,0.1c5.8-0.5,10.2-5.3,10.7-11.1"/>
        <path d="M303.4,413.6c-2.3,0.7-4.4-1.5-3.8-3.8c1.6-6.3,3.4-16.9-0.9-23.6c-6.2-9.8-24-17-30-19.1c-2.3-0.8-5.1-1.7-6.2-3.9c-1.6-3.1,0.7-6,13.7-5.3c13.2,0.7,23-1,29.6-1.6c6-0.6,11.7-2.9,16.3-6.8c3.2-2.7,5.7-6.2,4.6-9.8c-1.8-5.5-4.6-4-6.3-2.3c-1.7,1.6-3.6,3.1-5.7,4.3c-2.8,1.5-6.1,2.8-7.2,1.4c-2.1-2.9,0.9-6.2,3.2-9.9c2.1-3.3,2.6-7.4,1.4-11.2c-1.1-3.5-2.3-7.5-3-9.4c-1.6-4.2,1.3-8.7,5.6-4.7c4.3,4,11.7,12.3,15.1,8.3s-4.5-21.3-10.8-21.5s-27-10.3-42.2-3.6c-15.2,6.7-18.5,13.5-16.9,17.6s6,4.8,7.6,1.6c1.8-3.6,9.1-6,10.1,0c1,5.8-3.3,12.5-8.4,13.4c-6.7,1.1-13.2-0.7-16.5-5.2c-3.3-4.4,1.7-18.5,1.4-21s3.5-17.2-2.3-13.4c-5.8,3.8-11.6,15.4-10.4,24.8c1.1,9.4,2,20.9,10.8,24.9c8.8,4,17.2,7.2,24.9,2.2c7.7-5.1,12.3-13.6,11.1-19.4s-8.2-16.3-2.3-15.4c5.9,0.8,11.9,7.5,12.5,12.8c0.8,7.7,0.3,16-5.7,22.9c-4.7,5.4-6.6,8.6-15.8,10c-9.2,1.4-15.6,0.9-20.3-0.2c-5.5-1.3-12-1.5-16.1,2.6s-7.2,10.7-14.6,10.9c-7.5,0.1-15.7-2.2-16.4-2.7c-5.4-3.8-2.4-10,0.4-9.8c2.7,0.1,12,3,16.3,1.1c2.6-1.2,9.5-4.1,9.2-13.2c-0.4-9.6-5.1-14.8-9.5-16.6c-7.3-3.1,4.6-14.3,8.5-22.9c3.9-8.5-1.7-13.6,5.8-15.8s8.7-5,7-8.9s8.6-15.9,9.3-9.7c0.7,6.2,4.9,17.3,16,16.8c11-0.5,10-2.6,17.4-2.6c7.5-0.1,6.1,4.1,18.2,2.2c12-1.9,14.1-6.6,16.6-10.4c4.7-7.1,5.9-14.8,2.2-15.8c-3.6-1.1-5.6,7.2-13.8,11.2c-8.2,4-13.5-0.9-6.6-5.4c6.8-4.4,10.8-8.5,14-13.5s4.2-8,3.1-13.9s-3.2-11.2-6.9-14.1c-3.8-2.9-0.9-7.6,4.6-6.2c5.6,1.4,10.8,14.1,16.5,10.8c5.8-3.3-0.9-11-1.4-14.4c-0.6-3.4,4-8.3,11.7-0.1c2.3,2.5,5.7,6.2,9,6.6c1.8,0.3,3.8,0,5.8-1.4c1.6-1.1,8.5-12.2,2.8-14.5c-6.8-2.7-5.9-8.2-0.9-8.6c14-1.2,23.4,8.4,31.8,3c3.4-2.2,2.8-4.9,8.9-5.4c8.5-0.7,7.6,2.8,13.7,3.8c2.6,0.4,4.7-0.6,6.1-0.5c1.7,0.1,3,1.5,3.1,3.2c0.5,8.1,1.5,29.5-0.4,31.6c-5.4-1.6-2.7-13.5-6.7-17.6c-4.1-4.1-13.9-5.7-16.2-1c-1.6,3.2-2.4,7.9,0.6,8.7c5.6,1.5,8.1-4.2,10.6-0.9s-3.2,9.7-10,10.8c-7.5,1.2-11.1-12.2-16.1-16.6c-5-4.5-11.7-5.5-15.4-1.7c-3.7,3.8-3.3,21.9,0.1,21.9s4.1-5.7,7.3-4.9c3.2,0.8,4.1,10.3,2.1,15.9c-2.4,6.7-6.1,21.3-6.4,28.1s6.6,11.4,3.5,15s-9.5-1.1-11.7-6.4c-3.4-8.5-0.7-15.8,2.9-26.2c2.2-6.1,0.6-10.3-1.7-14.8c-1.8-3.4-9.8-11.3-19.5-10.5c-5.2,0.4-12.6,4.7-14.4,11.6c-2.1,7.9,1.9,14.4,9.8,14.4c11.8,0,8.7-7,4.7-7.6c-6.9-1-7.5-8.3-0.1-9c7.5-0.7,12.5,6,11.6,13.1c-0.9,7.7-4,13.1-12.3,14.6s-8.7,1.8-11.2,3.8c-5.6,4.4-4.3,9.5-1.8,10.2c5.1,1.5,7.9-4.4,10.9-3.4c3,0.9,11.7,4.3,8.8,7.7c-2.9,3.4-7.5,2.3-13.4,6.4c-4.3,3-9.4,13.5-4.6,16.4c3.6,2.1,13.6-6.8,19.2-10.8c1.4-1,3.5-0.1,3.7,1.6c0.3,2.3-6.3,13.7-7.6,18.4c-2.6,9.7-3.5,12.2-6.6,16.5c-1.7,2.4-21.2,15.4-19.4,29c1.7,12.6-6.8,3.9-9.6,6c-2.2,1.6,5.3,11.3,2.3,13.2c-6.8,4.4-22-14.1-25.6-7.7c-1.7,3.1,3.8,4.1,10.5,12.6s7.9,13,5,23.4C309.9,409.3,307.1,412.4,303.4,413.6L303.4,413.6L303.4,413.6z"/>
        <path d="M273.5,240.2c-3.7,3.7,0.3,6.3,3,7.3c4.6,1.7,9.4,8.1,6.5,11.3c-3.2,3.5-8.4,0.6-14.2-2.6c-2.3-1.3-8.9,2.1-4.7,7.3c4.2,5.2,14.6,11.5,23.6,5.6c9-5.8,8.5-15.3,5.7-20.5c-2.1-3.9-4.9-8.1-12.6-10.2C277.4,237.4,274.8,238.9,273.5,240.2L273.5,240.2L273.5,240.2z"/>
        <path d="M437.6,339.8c0.7-4.3-3.3-4.2-5.5-3.5c-3.9,1.1-10.4-0.9-9.9-4.5c0.5-3.9,5.4-4.5,10.9-5.2c2.2-0.3,5.1-5.8-0.3-7.2c-5.4-1.5-15.5-0.6-18.8,7.8s1.7,14.6,6.1,16.7c3.3,1.6,7.3,3.1,13.5,0.8C436.2,343.6,437.2,341.3,437.6,339.8L437.6,339.8L437.6,339.8z"/>
        <path d="M323.7,397.4c-3.4,4-0.3,7.3,1.9,8.6c3.7,2.3,7.2,10,4.5,13.5c-3,3.8-7,0.2-11.6-3.9c-1.8-1.7-7.6,1.8-4.5,8.1c3.1,6.3,11.3,14.3,19.3,8.1c8-6.2,8.4-17.2,6.5-23.4c-1.4-4.6-3.5-9.8-9.6-12.6C327.1,394.5,324.8,396,323.7,397.4L323.7,397.4L323.7,397.4z"/>
        <path d="M293.2,232.9l9.8,13.3c1,1.4,3.1,1.3,4-0.1c2.3-3.7,5.6-10.6,3.1-16.5c-0.9-2.2-2.9-7-4.8-7c-4.1,0-9.5,5.1-11.9,7.4C292.7,230.7,292.6,231.9,293.2,232.9L293.2,232.9z"/>
        <path d="M360.6,332c-2.1,0.5-3.4,3.1-1.9,4.7c3.7,3.9,17.3,0.4,25.5,0.7c2.1,0.1,12.3,6.3,19.4,8.4c2,0.6,3.5-1.8,2.2-3.4c-3.4-3.9-10.2-8.3-11.2-10.7c-0.5-1.3-3.7-5.3-5.1-5"/>
        <path d="M295,418.6c0.6-1.3-0.2-3.1-1.6-3.1c-3.4,0.1-7.1,8.5-10.5,12.5c-0.9,1-8.1,3.3-12,5.9c-1.1,0.7-0.5,2.6,0.8,2.6c3.3,0.1,8.2-1.3,9.8-0.7c0.9,0.4,4.1,0.6,4.6-0.3"/>
        <path d="M436.5,260.1c-0.3-4-4.4-14-10.6-17.7c-5.2-3.1-16.7-7.4-26-1.4c-14.9,9.7-14,21.8-14,21.8s-0.5,12.8,7.7,16c6.5,2.6,6.1-10.4,5.7-16c-0.2-2.8,0.5-5.7,2.2-7.9c1.9-2.5,8.1-6.3,13.8-4.8c11.4,3.2,10,17.3,6.3,19.9s-7.8-0.4-6.5-3.1c2.7-5.6,0.8-11.3-5.9-7.3c-3.4,2-7,9.6-3.5,15.7c2.9,5.1,9.6,7,13.4,7.4c5.1,0.5,10-2.7,12.1-5.3C433.4,274.8,437.1,267.5,436.5,260.1L436.5,260.1z"/>
        <path d="M436.2,305.3c-0.7,1.1-1.8,1.8-3.1,1.9c-4.4,0.4-12.3,1.7-17.2,5.5c-7.1,5.5-6.6,10.4-11,6.4s-7-15-13.6-17.1s-15-2.5-16.8,2.3c-1.8,4.9,0.4,7.9,4.4,6.4c3.3-1.3,6.7-1.1,6.9,2.6c0.1,2.6-2.1,4.4-4.6,5.8c-3.1,1.8-7.7,1.6-11,0c-3.8-1.9-6.9-6.9-6.1-14c0.9-8.6,7.6-14.9,20.3-14.2c12.8,0.8,20.3,17.2,24.1,17.7c3.7,0.4,4.9-6.7,15.6-8.6l9-0.9c1.3-0.1,2.5,0.6,3.1,1.8l0.2,0.4C437.1,302.5,437,304.1,436.2,305.3L436.2,305.3L436.2,305.3z"/>
      </g>
    </mask>
  </defs>
  <path fill="url(#payqr-grad)" fill-rule="evenodd" clip-rule="evenodd" mask="url(#payqr-cutout)" d="M59.4,124.8c0-36.2,29.4-65.6,65.6-65.6h262.3c36.2,0,65.6,29.4,65.6,65.6v9.9c-11.2-1.4-22.6-2.1-34.1-2.1c-151.4,0-274.2,120.1-274.2,268.3c0,17.7,1.8,35,5.1,51.8h-24.8c-36.2,0-65.6-29.4-65.6-65.6L59.4,124.8L59.4,124.8z M452.9,387.2V167.9c-11.1-1.6-22.5-2.4-34.1-2.4c-131.8,0-238.7,106.9-238.7,238.7c0,16.6,1.7,32.9,4.9,48.5h202.3C423.5,452.8,452.9,423.4,452.9,387.2L452.9,387.2z"/>
</svg>
